# xmcd CD database file
#
# Track frame offsets:
#	187
#	5887
#	19970
#	33300
#	41987
#	51635
#	61965
#	69287
#	80040
#	90825
#	104517
#	115115
#	125625
#	139287
#	151227
#	165332
#
# Disc length: 2291 seconds
#
# Revision: 2
# Processed by: cddbd v1.5.2PL0 Copyright (c) Steve Scherf et al.
# Submitted via: CDex 1.70beta2
#
DISCID=db08f110
DTITLE=The Future's - ママは小学4年生 音楽篇
DYEAR=1992
DGENRE=Anime
TTITLE0=未来からのプロローグ
TTITLE1=益田宏美 - 愛を+ワン
TTITLE2=友情
TTITLE3=急いで!!
TTITLE4=戸惑い
TTITLE5=さわやかな風
TTITLE6=不思議なroute
TTITLE7=この愛を未来へ
TTITLE8=夢のDoor
TTITLE9=愛を+ワン
TTITLE10=みらいのテーマ
TTITLE11=ふれあい
TTITLE12=なつみのテーマ
TTITLE13=ほんのりLOVE
TTITLE14=益田宏美 - この愛を未来へ
TTITLE15=Future’s,The/未来へのエピローグ
EXTD=YEAR: 1992
EXTT0=
EXTT1=
EXTT2=
EXTT3=
EXTT4=
EXTT5=
EXTT6=
EXTT7=
EXTT8=
EXTT9=
EXTT10=
EXTT11=
EXTT12=
EXTT13=
EXTT14=
EXTT15=
PLAYORDER=
